<?xml version="1.0" standalone="no"?>
<!DOCTYPE svg PUBLIC "-//W3C//DTD SVG 20010904//EN"
 "http://www.w3.org/TR/2001/REC-SVG-20010904/DTD/svg10.dtd">
<svg version="1.0" xmlns="http://www.w3.org/2000/svg"
 width="260.000000pt" height="260.000000pt" viewBox="0 0 260.000000 260.000000"
 preserveAspectRatio="xMidYMid meet">
<metadata>
Created by potrace 1.14, written by Peter Selinger 2001-2017
</metadata>
<g transform="translate(0.000000,260.000000) scale(0.100000,-0.100000)"
fill="#000000" stroke="none">
<path d="M160 1300 l0 -1140 1140 0 1140 0 0 1140 0 1140 -1140 0 -1140 0 0
-1140z m2250 0 l0 -1110 -1110 0 -1110 0 0 1110 0 1110 1110 0 1110 0 0 -1110z"/>
<path d="M810 1719 c-244 -36 -384 -208 -382 -469 1 -160 51 -279 151 -358 81
-64 146 -84 288 -90 131 -5 222 7 309 39 l54 20 0 225 0 224 -180 0 -180 0 0
-70 0 -70 100 0 100 0 0 -90 0 -89 -37 -10 c-49 -14 -187 -14 -236 0 -47 13
-102 60 -128 110 -40 79 -43 232 -6 320 21 52 82 106 140 125 79 26 215 16
287 -22 30 -16 58 -30 61 -32 3 -1 20 32 38 74 37 87 40 79 -54 124 -93 45
-201 58 -325 39z"/>
<path d="M1780 1719 c-113 -19 -222 -88 -280 -179 -52 -81 -72 -159 -72 -280
1 -128 25 -215 80 -288 50 -66 87 -96 169 -135 67 -31 71 -32 208 -32 136 0
142 1 205 31 109 53 106 48 74 129 -15 39 -30 74 -34 78 -4 5 -26 -3 -49 -17
-87 -55 -217 -69 -305 -32 -51 21 -102 79 -121 137 -20 60 -23 183 -6 245 16
58 64 120 113 145 89 45 235 33 322 -26 21 -14 40 -24 42 -22 2 2 17 37 34 78
l31 74 -28 23 c-55 44 -195 83 -288 81 -22 -1 -65 -5 -95 -10z"/>
</g>
</svg>
