<?xml version="1.0" standalone="no"?>
<!DOCTYPE svg PUBLIC "-//W3C//DTD SVG 20010904//EN"
 "http://www.w3.org/TR/2001/REC-SVG-20010904/DTD/svg10.dtd">
<svg version="1.0" xmlns="http://www.w3.org/2000/svg"
 width="863.000000pt" height="863.000000pt" viewBox="0 0 863.000000 863.000000"
 preserveAspectRatio="xMidYMid meet">
<metadata>
Created by potrace 1.14, written by Peter Selinger 2001-2017
</metadata>
<g transform="translate(0.000000,863.000000) scale(0.100000,-0.100000)"
fill="#000000" stroke="none">
<path d="M4078 8625 c-2 -1 -43 -5 -93 -9 -118 -8 -341 -35 -411 -50 -12 -2
-37 -7 -55 -10 -113 -18 -388 -89 -548 -142 -532 -176 -1035 -458 -1456 -817
-167 -143 -346 -324 -525 -533 -44 -51 -175 -226 -242 -324 -158 -229 -316
-524 -418 -775 -18 -44 -38 -93 -45 -110 -38 -87 -152 -458 -169 -548 -2 -12
-11 -53 -21 -92 -9 -38 -17 -81 -19 -95 -2 -14 -8 -52 -14 -85 -6 -33 -13 -78
-16 -100 -3 -22 -10 -76 -16 -120 -31 -244 -34 -780 -5 -955 2 -14 7 -54 11
-90 9 -88 10 -91 17 -125 3 -16 8 -46 11 -65 32 -218 137 -593 241 -855 72
-180 183 -414 241 -507 13 -21 24 -41 24 -45 1 -5 25 -46 55 -93 30 -47 66
-105 81 -130 15 -25 46 -70 69 -100 22 -30 48 -66 57 -80 8 -14 56 -76 106
-139 609 -763 1476 -1311 2412 -1521 120 -27 129 -29 165 -35 148 -26 158 -27
280 -41 28 -3 52 -7 55 -9 29 -18 630 -26 810 -11 208 17 441 54 645 102 176
41 459 128 550 168 17 8 41 17 55 21 60 18 375 170 515 248 479 268 924 646
1266 1077 85 107 243 329 266 375 9 17 19 32 23 35 22 15 214 379 284 537 129
291 265 744 302 1003 4 30 8 57 9 60 1 3 5 30 9 60 4 30 9 67 12 81 34 216 40
825 10 986 -2 10 -7 45 -11 78 -11 99 -14 121 -30 212 -21 124 -52 258 -92
403 -19 69 -37 134 -40 145 -2 11 -8 29 -13 40 -5 11 -23 63 -41 115 -80 235
-211 514 -356 758 -524 881 -1347 1549 -2323 1884 -142 48 -421 123 -530 142
-19 3 -45 8 -57 11 -13 3 -31 7 -40 9 -22 4 -86 14 -133 21 -19 2 -51 6 -70 9
-35 5 -99 12 -195 22 -53 5 -592 14 -597 9z"/>
</g>
</svg>
